# xmcd
#
# Track frame offsets:
#	150
#	18016
#	33269
#	52015
#	70984
#	93269
#	109905
#	128456
#	148380
#	165911
#	181273
#	199203
#	222505
#	238767
#	253253
#	269440
#
# Disc length: 3971 seconds
#
# Revision: 3
# Processed by: cddbd v1.5.2PL0 Copyright (c) Steve Scherf et al.
# Submitted via: EasyCDDAExtractor 2010.4.0.0
#
DISCID=e90f8110
DTITLE=Various Artist - Greenwave's the Best of Cover Night Plus
DYEAR=2010
DGENRE=Pop
TTITLE0=ทะเลพระจันทร์
TTITLE1=ไม่ลืม
TTITLE2=อยู่เพื่อใคร
TTITLE3=คือความรักใช่ไหม
TTITLE4=เกิดมาแค่รักกัน
TTITLE5=เวลาที่ดีที่สุดที่ฉันเคยมี
TTITLE6=เดียวดายกลางสายลม
TTITLE7=บัวช้ำ น้ำขุ่น
TTITLE8=ถามเอาอะไร
TTITLE9=เพื่อนสนิทคิดไม่ซื่อ
TTITLE10=หมดหัวใจ
TTITLE11=นอนไม่หลับ
TTITLE12=รักตัวเองให้เป็น
TTITLE13=ไม่บังเอิญ
TTITLE14=หมอกหรือควัน
TTITLE15=ยาพิษ
EXTD=
EXTT0=
EXTT1=
EXTT2=
EXTT3=
EXTT4=
EXTT5=
EXTT6=
EXTT7=
EXTT8=
EXTT9=
EXTT10=
EXTT11=
EXTT12=
EXTT13=
EXTT14=
EXTT15=
PLAYORDER=
